<svg id="svg" version="1.1" xmlns="http://www.w3.org/2000/svg" xmlns:xlink="http://www.w3.org/1999/xlink" width="400" height="400" viewBox="0, 0, 400,400"><g id="svgg"><path id="path0" d="M194.416 26.545 L 190.283 39.027 176.987 39.240 C 159.816 39.515,159.772 39.620,172.799 49.248 C 178.092 53.159,182.849 56.605,183.370 56.906 C 184.069 57.308,183.300 60.638,180.452 69.546 C 174.905 86.893,175.213 87.127,189.673 76.550 C 201.225 68.100,198.821 68.098,210.463 76.563 C 224.885 87.049,225.093 86.888,219.548 69.546 C 216.700 60.638,215.931 57.308,216.630 56.906 C 217.151 56.605,221.908 53.159,227.201 49.248 C 240.228 39.620,240.184 39.515,223.013 39.240 L 209.717 39.027 205.584 26.545 C 202.221 16.390,201.180 14.063,200.000 14.063 C 198.820 14.063,197.779 16.390,194.416 26.545 M124.061 60.509 L 120.703 71.019 109.439 71.252 C 95.391 71.542,95.360 71.627,106.411 79.703 C 111.264 83.250,115.305 86.205,115.392 86.268 C 115.479 86.332,114.020 91.206,112.148 97.099 C 110.277 102.993,109.063 108.011,109.451 108.250 C 110.346 108.803,110.540 108.685,120.023 101.822 C 129.542 94.932,127.258 94.864,137.500 102.344 C 149.379 111.019,149.406 110.996,144.531 96.484 C 142.813 91.368,141.406 86.967,141.406 86.703 C 141.406 86.439,145.464 83.302,150.423 79.731 C 161.691 71.620,161.663 71.538,147.553 71.269 L 136.250 71.054 132.806 60.527 C 128.526 47.444,128.236 47.444,124.061 60.509 M267.194 60.527 L 263.750 71.054 252.447 71.269 C 238.337 71.538,238.309 71.620,249.577 79.731 C 254.536 83.302,258.594 86.439,258.594 86.703 C 258.594 86.967,257.188 91.368,255.469 96.484 C 250.594 110.996,250.621 111.019,262.500 102.344 C 272.752 94.857,270.418 94.895,280.237 102.051 C 292.340 110.871,292.305 110.901,287.494 95.879 C 285.821 90.655,284.523 86.330,284.609 86.267 C 306.137 70.563,305.740 71.565,290.561 71.252 L 279.297 71.019 275.939 60.509 C 271.764 47.444,271.474 47.444,267.194 60.527 M197.672 86.165 C 191.930 89.054,192.042 108.612,197.814 111.003 C 203.666 113.427,206.380 108.987,206.079 97.481 C 205.807 87.095,203.091 83.439,197.672 86.165 M195.985 117.900 C 193.138 120.205,193.138 138.389,195.985 140.694 C 202.280 145.791,205.859 141.660,205.859 129.297 C 205.859 118.309,204.994 116.406,200.000 116.406 C 198.806 116.406,196.999 117.078,195.985 117.900 M195.629 149.299 C 191.904 153.411,193.425 170.904,197.660 172.658 C 203.842 175.218,206.584 170.615,206.135 158.428 C 205.809 149.581,204.713 147.656,200.000 147.656 C 198.063 147.656,196.629 148.195,195.629 149.299 M195.985 179.618 C 193.403 181.707,193.117 201.826,195.629 204.604 C 197.651 206.840,202.346 206.842,204.371 204.608 C 205.979 202.834,206.952 189.534,205.889 183.868 C 204.891 178.550,199.933 176.422,195.985 179.618 M172.619 212.413 C 158.492 216.948,134.344 231.945,136.237 235.008 C 137.078 236.369,158.245 242.796,159.093 241.949 C 159.273 241.769,160.820 238.727,162.531 235.188 C 166.593 226.788,170.433 221.077,176.066 215.054 C 178.586 212.360,180.344 210.182,179.972 210.213 C 179.601 210.244,176.292 211.234,172.619 212.413 M223.828 214.940 C 229.565 221.074,233.388 226.750,237.469 235.188 C 239.180 238.727,240.727 241.769,240.907 241.949 C 241.811 242.852,264.063 236.011,264.063 234.829 C 264.063 230.986,240.159 216.330,227.734 212.555 C 224.727 211.641,221.563 210.676,220.703 210.411 C 219.738 210.113,220.934 211.845,223.828 214.940 M189.020 217.061 C 182.116 221.468,172.584 234.307,169.998 242.683 C 169.455 244.441,172.177 244.962,189.648 246.438 L 194.531 246.851 194.531 230.847 C 194.531 212.925,194.728 213.417,189.020 217.061 M205.469 230.847 L 205.469 246.851 210.352 246.438 C 227.823 244.962,230.545 244.441,230.002 242.683 C 227.416 234.307,217.884 221.468,210.980 217.061 C 205.272 213.417,205.469 212.925,205.469 230.847 M123.686 249.023 C 115.261 261.869,110.351 275.273,108.907 289.372 L 108.378 294.531 128.798 294.531 L 149.219 294.531 149.234 290.430 C 149.255 284.665,151.141 271.271,153.166 262.500 C 154.108 258.418,155.040 254.352,155.237 253.465 C 155.559 252.015,154.785 251.636,147.524 249.695 C 143.085 248.508,136.878 246.509,133.730 245.253 C 130.582 243.997,127.928 242.969,127.832 242.969 C 127.736 242.969,125.870 245.693,123.686 249.023 M267.188 244.907 C 264.824 245.939,258.733 247.930,253.650 249.333 C 245.332 251.628,244.446 252.041,244.765 253.480 C 244.961 254.359,245.892 258.418,246.834 262.500 C 248.859 271.271,250.745 284.665,250.766 290.430 L 250.781 294.531 271.094 294.531 L 291.406 294.531 291.400 292.383 C 291.381 285.410,287.392 270.234,283.185 261.129 C 280.654 255.650,272.729 242.951,271.875 243.006 C 271.660 243.020,269.551 243.876,267.188 244.907 M164.950 256.749 C 164.520 258.408,163.771 261.291,163.285 263.154 C 161.661 269.393,160.154 279.228,159.645 286.914 L 159.140 294.531 176.836 294.531 L 194.531 294.531 194.531 275.837 L 194.531 257.144 190.430 256.730 C 173.752 255.050,170.417 254.675,168.218 254.232 C 165.853 253.757,165.694 253.879,164.950 256.749 M225.391 255.136 C 221.953 255.693,217.383 256.175,215.234 256.208 C 213.086 256.240,210.010 256.485,208.398 256.751 L 205.469 257.236 205.469 275.883 L 205.469 294.531 223.047 294.531 L 240.625 294.531 240.625 290.800 C 240.625 278.302,235.515 253.803,232.952 254.015 C 232.231 254.075,228.828 254.579,225.391 255.136 M108.925 310.884 C 110.337 325.208,118.164 344.809,126.395 354.629 L 128.637 357.304 138.342 354.124 C 143.680 352.374,149.915 350.514,152.198 349.991 C 155.528 349.227,156.251 348.787,155.853 347.762 C 153.288 341.139,149.219 317.571,149.219 309.335 L 149.219 305.469 128.805 305.469 L 108.392 305.469 108.925 310.884 M159.689 313.274 C 160.577 326.167,164.899 346.882,166.697 346.869 C 167.182 346.865,171.784 346.338,176.923 345.697 C 182.063 345.056,188.128 344.531,190.400 344.531 L 194.531 344.531 194.531 325.000 L 194.531 305.469 176.841 305.469 L 159.152 305.469 159.689 313.274 M205.469 325.000 L 205.469 344.531 209.600 344.531 C 211.872 344.531,217.937 345.056,223.077 345.697 C 228.216 346.338,232.818 346.865,233.303 346.869 C 235.100 346.881,239.518 325.716,240.355 313.086 L 240.860 305.469 223.164 305.469 L 205.469 305.469 205.469 325.000 M250.781 309.335 C 250.781 317.546,246.713 341.139,244.161 347.724 C 243.772 348.728,244.986 349.305,250.551 350.759 C 254.330 351.747,260.586 353.689,264.453 355.076 L 271.484 357.598 273.873 354.385 C 282.993 342.117,289.587 325.331,291.104 310.523 L 291.622 305.469 271.202 305.469 L 250.781 305.469 250.781 309.335 M178.125 355.626 C 170.121 356.506,169.590 356.905,171.394 360.687 C 176.761 371.942,186.329 382.694,192.773 384.711 L 194.531 385.262 194.531 369.975 L 194.531 354.688 189.648 354.792 C 186.963 354.850,181.777 355.225,178.125 355.626 M205.469 369.863 L 205.469 385.262 207.227 384.711 C 212.908 382.933,219.085 376.596,225.612 365.851 C 231.554 356.070,231.765 356.265,213.867 355.040 L 205.469 354.465 205.469 369.863 M148.618 361.354 C 135.086 365.122,135.107 365.107,138.806 368.434 C 148.280 376.953,167.645 387.212,177.110 388.725 L 180.281 389.232 175.768 384.489 C 170.298 378.741,165.967 372.244,162.421 364.468 C 160.960 361.267,159.414 358.656,158.984 358.666 C 158.555 358.677,153.890 359.886,148.618 361.354 M237.579 364.499 C 234.017 372.269,229.681 378.763,224.232 384.489 L 219.719 389.232 222.890 388.725 C 233.768 386.986,263.281 370.232,263.281 365.797 C 263.281 364.905,250.639 360.903,242.188 359.120 C 240.402 358.743,240.006 359.205,237.579 364.499 " stroke="none" fill="#000000" fill-rule="evenodd"></path></g></svg>