<?xml version="1.0" encoding="UTF-8"?>
<svg xmlns="http://www.w3.org/2000/svg" xmlns:xlink="http://www.w3.org/1999/xlink" width="40px" height="40px" viewBox="0 0 40 40" version="1.1">
<defs>
<linearGradient id="linear0" gradientUnits="userSpaceOnUse" x1="0" y1="0" x2="1" y2="1" gradientTransform="matrix(36.5,0,0,29.5,0,0)">
<stop offset="0" style="stop-color:rgb(60.392157%,30.588235%,26.27451%);stop-opacity:1;"/>
<stop offset="0.5" style="stop-color:rgb(39.607843%,69.411765%,73.72549%);stop-opacity:1;"/>
<stop offset="1" style="stop-color:rgb(60.392157%,30.588235%,26.27451%);stop-opacity:1;"/>
<stop offset="1" style="stop-color:rgb(60.392157%,30.588235%,26.27451%);stop-opacity:1;"/>
<stop offset="1" style="stop-color:rgb(60.392157%,30.588235%,26.27451%);stop-opacity:1;"/>
</linearGradient>
<radialGradient id="radial0" gradientUnits="userSpaceOnUse" cx="0.5" cy="0.5" fx="0.5" fy="0.5" r="0.5" gradientTransform="matrix(36.007812,0,0,41.46875,4.992188,0.265625)">
<stop offset="0.31" style="stop-color:rgb(14.117647%,44.313725%,44.313725%);stop-opacity:1;"/>
<stop offset="1" style="stop-color:rgb(85.882353%,55.686275%,55.686275%);stop-opacity:1;"/>
</radialGradient>
</defs>
<g id="surface1">
<path style=" stroke:none;fill-rule:nonzero;fill:rgb(75.686276%,75.294119%,75.294119%);fill-opacity:1;" d="M 3.5 10.5 L 3.5 29.5 L 20 39 L 36.5 29.5 L 36.5 10.5 L 20 1 Z M 3.5 10.5 "/>
<path style=" stroke:none;fill-rule:nonzero;fill:rgb(22.745098%,22.745098%,22.745098%);fill-opacity:1;" d="M 20 20 L 3.5 10.5 L 3.5 29.5 Z M 20 20 "/>
<path style=" stroke:none;fill-rule:nonzero;fill:rgb(21.960784%,21.960784%,21.960784%);fill-opacity:1;" d="M 20 20 L 3.5 29.5 L 20 39 Z M 20 20 "/>
<path style=" stroke:none;fill-rule:nonzero;fill:rgb(27.843139%,27.843139%,27.843139%);fill-opacity:1;" d="M 20 20 L 20 39 L 36.5 29.5 Z M 20 20 "/>
<path style=" stroke:none;fill-rule:nonzero;fill:url(#linear0);" d="M 36.5 10.5 L 20 20 L 36.5 29.5 Z M 36.5 10.5 "/>
<path style=" stroke:none;fill-rule:nonzero;fill:rgb(37.64706%,37.64706%,37.64706%);fill-opacity:1;" d="M 20 1 L 20 20 L 36.5 10.5 Z M 20 1 "/>
<path style="fill-rule:nonzero;fill:rgb(27.843139%,27.843139%,27.843139%);fill-opacity:1;stroke-width:2;stroke-linecap:butt;stroke-linejoin:miter;stroke:url(#radial0);stroke-miterlimit:4;" d="M 7 21 L 40 40 L 40 2 Z M 7 21 " transform="matrix(0.5,0,0,0.5,0,0)"/>
</g>
</svg>
