<?xml version="1.0"?>
<svg width="80" height="80" xmlns="http://www.w3.org/2000/svg" xmlns:svg="http://www.w3.org/2000/svg">
 <g class="layer">
  <title>Layer 1</title>
  <polygon fill="#c1c0c0" fill-rule="nonzero" id="svg_2" points="7 21 7 59 40 78 73 59 73 21 40 2"/>
  <polygon fill="#3a3a3a" fill-rule="nonzero" id="svg_4" points="40 40 7 21 7 59" transform="matrix(1, 0, 0, 1, 0, 0)"/>
  <polygon fill="#383838" fill-rule="nonzero" id="svg_5" points="40 40 7 59 40 78" transform="matrix(1, 0, 0, 1, 0, 0)"/>
  <polygon fill="#474747" fill-rule="nonzero" id="svg_6" points="40 40 40 78 73 59" transform="matrix(1, 0, 0, 1, 0, 0)"/>
  <polygon fill="url(#svg_15)" fill-rule="nonzero" id="svg_7" points="73 21 40 40 73 59" stroke="#ffffff" stroke-width="0" transform="matrix(1, 0, 0, 1, 0, 0)"/>
  <polygon fill="#606060" fill-rule="nonzero" id="svg_8" points="40 2 40 40 73 21" transform="matrix(1, 0, 0, 1, 0, 0)"/>
  <polygon fill="#474747" fill-rule="nonzero" id="svg_3" points="7 21 40 40 40 2" stroke="url(#svg_12)" stroke-width="2"/>
 </g>
 <defs>
  <radialGradient cx="0.5" cy="0.5" id="svg_12" r="0.5" spreadMethod="pad">
   <stop id="jq_stop_4028" offset="0.31" stop-color="#247171"/>
   <stop id="jq_stop_549" offset="1" stop-color="#db8e8e"/>
  </radialGradient>
  <linearGradient fx="0.9" fy="0.51" id="svg_15" spreadMethod="pad" x2="1" y2="1">
   <stop id="jq_stop_4507" offset="0" stop-color="#9a4e43"/>
   <stop id="jq_stop_4685" offset="0.5" stop-color="#65b1bc"/>
   <stop id="jq_stop_6391" offset="1" stop-color="#9a4e43"/>
   <stop id="jq_stop_7685" offset="1" stop-color="#9a4e43"/>
   <stop id="jq_stop_3128" offset="1" stop-color="#9a4e43"/>
  </linearGradient>
 </defs>
</svg>